<svg xmlns="http://www.w3.org/2000/svg" width="309" height="309" viewBox="0 0 309 309">
    <path fill="#FFF" fill-rule="evenodd" d="M13.36 91c-1.592 3.582-3.036 7.264-4.36 11.038L113.311 123c2.781-3.785 6.017-7.14 9.689-9.967L13.36 91zm90.57 74.726L.28 145c-.227 3.487-.318 6.966-.266 10.408L108 177c-1.812-3.557-3.172-7.362-4.07-11.274zM184.955 3.02C114.843-10.946 46.264 24.702 16 85.632l114.858 22.88c10.043-5.206 21.9-7.156 33.865-4.772 11.97 2.383 22.16 8.726 29.419 17.38L309 144C304.598 76.163 255.097 16.994 184.955 3.02zm123.73 141.456l-1.233 6.177L199.282 129c2.306 4.014 4.01 8.345 5.127 12.897l100.76 20.17-1.299 6.504-98.228-19.662c.411 3.868.39 7.854-.134 11.843l96.079 19.231-1.299 6.503-96.049-19.226c-.988 3.928-2.43 7.597-4.269 11.05L298 197.935l-1.299 6.5-100.436-20.103c-2.347 3.284-5.076 6.288-8.13 8.89l106.545 21.327-1.3 6.505-112.523-22.525c-10.625 6.327-23.513 8.92-36.575 6.307-13.063-2.616-23.961-9.97-31.335-19.901L0 162.325c3.509 69.016 53.266 129.466 124.069 143.638 83.735 16.762 165.15-37.553 181.9-121.348 2.703-13.528 3.568-26.984 2.716-40.14zM6.95 109c-1.14 3.634-2.121 7.332-2.95 11.093L104.595 140c1.04-3.818 2.548-7.444 4.405-10.802L6.95 109zM104 147.188L2.642 127c-.71 3.872-1.243 7.711-1.642 11.546L103.695 159c-.373-3.885-.294-7.816.305-11.812z" opacity=".217"/>
</svg>
