<svg xmlns="http://www.w3.org/2000/svg" xmlns:xlink="http://www.w3.org/1999/xlink" width="410" height="374" viewBox="0 0 410 374">
    <defs>
        <path id="prefix__a" d="M0 0L584 0 584 176 0 176z"/>
    </defs>
    <g fill="none" fill-rule="evenodd" opacity=".511" transform="rotate(-40 381.114 373.629)">
        <mask id="prefix__b" fill="#fff">
            <use xlink:href="#prefix__a"/>
        </mask>
        <path fill="#FFF" d="M65.745 97.574h109.021v13.494h-70.088c-9.761 0-28.629-1.66-38.933-13.494zm-7.152-20.919c0-31.365 24.499-37.813 29.433-38.79h86.74v41.163H58.66c-.04-.773-.066-1.565-.066-2.373zm133.063 2.373h23.68V37.865h-23.68v41.163zm40.568 0h26.14V37.865h-26.14v41.163zm176.95-41.163c.868 0 21.313.242 21.313 21.31 0 16.055-12.682 19.278-16.152 19.853H275.252V37.865h133.921zm-217.518 73.203h23.68V97.574h-23.68v13.494zm40.568 0h26.14V97.574h-26.14v13.494zm32.636 21.615v8.895c-4.311.899-7.551 4.716-7.551 9.293 0 5.244 4.253 9.494 9.5 9.494 5.246 0 9.498-4.25 9.498-9.494 0-4.99-3.863-9.034-8.752-9.422v-8.59c2.395-.215 4.488-1.45 5.894-3.245H499.5C527.424 129.614 584 176 584 176V56.264c-21.855 40.777-84.5 54.804-84.5 54.804H275.253V97.574H415l1.08-.066c11.405-1.335 32.962-11.073 32.962-38.333 0-29.243-23.847-39.858-39.87-39.858H275.252V8.441c0-4.644-3.801-8.441-8.443-8.441-4.646 0-8.445 3.797-8.445 8.441v10.876h-26.14V8.441c0-4.644-3.799-8.441-8.445-8.441-4.643 0-8.442 3.797-8.442 8.441v10.876h-23.681V8.441c0-4.644-3.8-8.441-8.445-8.441-4.644 0-8.445 3.797-8.445 8.441v10.876H87.198l-1.413.111c-15.819 2.433-45.746 17.526-45.746 57.227 0 .804.011 1.594.04 2.373H14.35L0 64.683v46.536l14.35-13.645h29.585c9.687 23.237 35.893 32.04 60.743 32.04h71.856c1.167 1.502 2.822 2.614 4.728 3.07v8.894c-4.31.899-7.551 4.716-7.551 9.293 0 5.244 4.255 9.494 9.5 9.494 5.246 0 9.5-4.25 9.5-9.494 0-4.99-3.861-9.034-8.754-9.422v-8.59c2.395-.215 4.49-1.45 5.894-3.245h27.254c1.166 1.502 2.821 2.614 4.725 3.07v8.894c-4.31.899-7.549 4.716-7.549 9.293 0 5.244 4.253 9.494 9.498 9.494 5.246 0 9.5-4.25 9.5-9.494 0-4.99-3.86-9.034-8.752-9.422v-8.59c2.395-.215 4.488-1.45 5.892-3.245h29.713c1.167 1.502 2.82 2.614 4.728 3.07z" mask="url(#prefix__b)" opacity=".241"/>
    </g>
</svg>
